<svg width="502" height="444" viewBox="0 0 502 444" fill="none" xmlns="http://www.w3.org/2000/svg">
<path d="M448.429 1H233V149.842H448.429V1Z" fill="#4582FF" stroke="#263238" stroke-linecap="round" stroke-linejoin="round"/>
<path d="M448.429 1H233V15.7161H448.429V1Z" fill="#263238"/>
<path d="M320.272 103.051L315.22 96.0211C315.219 94.553 315.144 93.0858 314.995 91.6252C314.806 90.9689 311.741 86.1415 311.669 84.9998C311.657 84.4546 311.588 83.9122 311.462 83.3816C311.462 83.3816 309.889 83.7772 309.907 84.7391C309.925 85.701 310.096 88.9463 310.096 88.9463C310.096 88.9463 305.996 86.555 305.538 85.9257C305.079 85.2964 300.081 81.6286 299.614 81.0803C299.146 80.5319 297.24 80.4959 297.016 81.0803L297.285 81.7545L295.712 82.5006L296.764 85.6201C296.463 86.3223 296.281 87.0696 296.225 87.8315C296.395 88.2181 296.953 90.5284 296.953 90.5284C296.953 90.5284 296.611 90.879 296.656 92.1016C296.701 93.3242 303.416 99.5721 304.747 100.246C306.336 100.914 307.963 101.487 309.619 101.963L313.835 107.42L320.272 103.051Z" fill="white" stroke="#263238" stroke-linecap="round" stroke-linejoin="round"/>
<path d="M310.087 88.9463C309.302 90.7325 309.101 92.7206 309.511 94.6278" stroke="#263238" stroke-linecap="round" stroke-linejoin="round"/>
<path d="M297.276 81.7545C298.634 82.2759 300.333 84.811 301.115 85.5931C301.822 86.2311 302.58 86.8113 303.38 87.3281" stroke="#263238" stroke-linecap="round" stroke-linejoin="round"/>
<path d="M296.755 85.5931C297.87 85.3594 298.625 85.7909 298.598 86.8787C298.571 87.9664 300.98 89.6205 300.98 89.6205" stroke="#263238" stroke-linecap="round" stroke-linejoin="round"/>
<path d="M296.944 90.5015C296.944 90.5015 297.726 89.1081 298.346 89.7464C298.966 90.3846 299.164 92.0208 300.306 92.3624" stroke="#263238" stroke-linecap="round" stroke-linejoin="round"/>
<path d="M385.969 95.4098C385.969 95.4098 368.232 96.5065 364.321 98.1067C361.112 99.4282 338.539 114.288 338.539 114.288C338.539 114.288 325.261 104.274 321.405 100.804C320.661 100.444 319.861 100.213 319.04 100.12L317.018 98.8348L312.046 105.838L313.44 107.771C313.44 107.771 313.664 110.89 314.285 111.672C322.537 122.037 338.341 136.547 340.714 137.976C343.088 139.405 364.142 126.946 364.142 126.946L368.052 149.869H430.845C430.845 149.869 430.683 109.64 428.04 106.557C425.397 103.474 395.102 91.3824 395.102 91.3824L385.969 95.4098Z" fill="#757575" stroke="#263238" stroke-linecap="round" stroke-linejoin="round"/>
<path d="M407.175 80.8555C407.175 80.8555 401.548 84.6312 404.532 96.6954C404.532 96.6954 396.055 102.754 387.668 96.6414C387.668 96.6414 389.601 87.0225 387.668 85.0897" fill="white"/>
<path d="M407.175 80.8555C407.175 80.8555 401.548 84.6312 404.532 96.6954C404.532 96.6954 396.055 102.754 387.668 96.6414C387.668 96.6414 389.601 87.0225 387.668 85.0897" stroke="#263238" stroke-linecap="round" stroke-linejoin="round"/>
<path d="M426.917 108.427C426.917 108.427 419.267 117.228 418.377 132.295" stroke="#263238" stroke-linecap="round" stroke-linejoin="round"/>
<path d="M393.25 56.6822C393.25 56.6822 388.234 55.9271 386.481 62.076C385.46 65.8418 385.873 69.8526 387.641 73.3311L396.864 64.674L393.25 56.6822Z" fill="#263238"/>
<path d="M405.458 84.5233C411.922 76.8101 416.489 63.9549 406.78 58.8218C388.045 48.9151 381.851 68.2699 384.998 86.2493C385.969 91.796 393.502 89.3238 399.013 87.3191" fill="white"/>
<path d="M405.458 84.5233C411.922 76.8101 416.489 63.9549 406.78 58.8218C388.045 48.9151 381.851 68.2699 384.998 86.2493C385.969 91.796 393.502 89.3238 399.013 87.3191" stroke="#263238" stroke-linecap="round" stroke-linejoin="round"/>
<path d="M392.369 67.7575C392.369 67.7575 395.462 68.5936 396.244 70.2477" stroke="#263238" stroke-linecap="round" stroke-linejoin="round"/>
<path d="M387.892 66.9395C387.527 66.76 387.122 66.6772 386.716 66.6993C386.31 66.7213 385.917 66.8474 385.573 67.0654" stroke="#263238" stroke-linecap="round" stroke-linejoin="round"/>
<path d="M392.315 72.0187C392.261 72.567 392.504 73.0435 392.855 73.0795C393.205 73.1154 393.538 72.6929 393.592 72.1805C393.646 71.6681 393.403 71.1467 393.052 71.1107C392.702 71.0748 392.369 71.4613 392.315 72.0187Z" fill="#263238"/>
<path d="M385.609 70.3555C385.564 70.9129 385.807 71.3893 386.157 71.4253C386.508 71.4613 386.841 71.0388 386.895 70.5263C386.948 70.0139 386.706 69.5015 386.346 69.4656C385.987 69.4296 385.663 69.8072 385.609 70.3555Z" fill="#263238"/>
<path d="M402.573 75.6235C402.573 75.6235 399.669 79.8307 397.718 81.1792C396.458 81.9863 394.939 82.2881 393.466 82.0242C393.466 82.0242 390.976 78.9497 387.344 78.9048C386.404 78.3062 385.335 77.9396 384.225 77.835L384.431 73.1424C384.431 73.1424 381.672 83.2019 381.932 86.8067C382.193 90.4116 391.057 92.9107 395.489 91.9039C399.921 90.897 402.177 84.0019 403.526 77.5204C403.624 76.981 402.573 75.6235 402.573 75.6235Z" fill="#263238"/>
<path d="M384.764 81.2241C384.764 81.2241 388.27 82.9051 391.39 82.5096" stroke="white" stroke-linecap="round" stroke-linejoin="round"/>
<path d="M405.476 62.8042C406.627 61.9052 403.678 58.0397 402.024 58.1206C400.37 58.2015 392.253 58.5071 392.253 58.5071C392.253 58.5071 390.544 49.5714 404.209 54.3989C406.447 55.1899 407.166 57.2845 409.171 58.3543C411.176 59.4241 413.891 65.0516 413.118 69.8521C412.344 74.6526 409.782 83.076 405.135 85.6021C405.135 85.6021 403.535 85.4403 404.505 84.3345C409.081 79.1834 404.29 69.4926 403.526 77.5024L401.916 76.5405C401.904 75.6609 401.994 74.7829 402.186 73.9245C402.528 71.722 400.092 67.2182 405.476 62.8042Z" fill="#263238"/>
<path d="M404.775 75.0392C404.775 75.0392 407.715 71.5512 409.495 72.7378C411.275 73.9244 410.079 78.1316 409.126 79.1834C408.173 80.2352 407.4 80.4689 406.079 82.15C404.757 83.8311 403.094 83.2647 403.382 81.9163" fill="white"/>
<path d="M404.775 75.0392C404.775 75.0392 407.715 71.5512 409.495 72.7378C411.275 73.9244 410.079 78.1316 409.126 79.1834C408.173 80.2352 407.4 80.4689 406.079 82.15C404.757 83.8311 403.094 83.2647 403.382 81.9163" stroke="#263238" stroke-linecap="round" stroke-linejoin="round"/>
<path d="M395.785 72.4682C395.884 74.419 394.698 76.0641 393.089 76.145C391.479 76.2259 390.167 74.7156 390.068 72.7648C389.969 70.8141 391.156 69.169 392.765 69.0881C394.374 69.0072 395.669 70.5174 395.785 72.4682Z" stroke="#263238" stroke-width="0.5" stroke-miterlimit="10"/>
<path d="M387.497 70.6971C387.605 72.6479 386.409 74.293 384.845 74.3829C383.281 74.4728 381.923 72.9446 381.815 70.9938C381.708 69.043 382.912 67.3979 384.512 67.317C386.113 67.2361 387.398 68.7464 387.497 70.6971Z" stroke="#263238" stroke-width="0.5" stroke-miterlimit="10"/>
<path d="M388.351 69.025C388.351 69.924 383.694 75.2369 383.64 76.4056C383.586 77.5742 387.973 77.6461 387.973 77.6461" fill="white"/>
<path d="M388.351 69.025C388.351 69.924 383.694 75.2369 383.64 76.4056C383.586 77.5742 387.973 77.6461 387.973 77.6461" stroke="#263238" stroke-linecap="round" stroke-linejoin="round"/>
<path d="M387.497 70.6972C387.497 70.6972 388.89 70.3466 390.059 72.2254" stroke="#263238" stroke-width="0.5" stroke-miterlimit="10"/>
<path d="M395.803 73.1514L397.314 73.3761L405.791 73.9694" stroke="#263238" stroke-width="0.5" stroke-miterlimit="10"/>
<path d="M421.604 113.218L419.914 111.124C419.914 111.124 405.674 112.751 399.381 121.237C399.381 121.237 387.695 115.718 377.177 118.406L376.871 122.172L399.876 135.935L408.865 132.196L421.604 113.218Z" fill="white" stroke="#263238" stroke-linecap="round" stroke-linejoin="round"/>
<path d="M423.914 111.951L421.487 128.132C421.487 128.132 408.092 134.012 405.305 138.74L404.64 138.83L401.494 139.271L399.795 138.767C395.638 137.557 391.403 136.632 387.119 135.998C385.633 135.769 384.124 135.711 382.624 135.827L373.563 121.705C373.563 121.705 387.578 119.763 397.269 123.08L401.907 122.756L402.078 122.613C403.472 121.471 413.234 113.713 423.914 111.951Z" fill="#4582FF"/>
<path opacity="0.3" d="M404.461 135.054L402.078 122.604C403.463 121.471 413.225 113.713 423.905 111.951L421.478 128.132C421.478 128.132 408.083 134.012 405.297 138.74L404.631 138.83L404.461 135.054Z" fill="black" fill-opacity="0.7"/>
<path opacity="0.3" d="M399.849 135.935L399.786 138.758C395.629 137.548 391.394 136.623 387.11 135.989C387.301 133.134 388.417 130.418 390.291 128.256C392.165 126.093 394.694 124.601 397.494 124.006L399.849 135.935Z" fill="black" fill-opacity="0.7"/>
<path d="M423.914 111.951L421.487 128.132C421.487 128.132 408.092 134.012 405.305 138.74L404.64 138.83L401.494 139.271L399.795 138.767C395.638 137.557 391.403 136.632 387.119 135.998C385.633 135.769 384.124 135.711 382.624 135.827L373.563 121.705C373.563 121.705 387.578 119.763 397.269 123.08L401.907 122.756L402.078 122.613C403.472 121.471 413.234 113.713 423.914 111.951Z" stroke="#263238" stroke-linecap="round" stroke-linejoin="round"/>
<path d="M404.406 142.687C399.606 142.381 390.472 135.027 390.472 135.027C389.923 133.655 389.151 132.383 388.189 131.261C386.886 129.957 388.621 128.87 388.621 128.87C388.621 128.87 387.101 127.89 386.238 127.35C385.375 126.811 386.886 125.391 386.886 125.391C386.886 125.391 393.403 126.29 394.077 126.047C394.752 125.804 401.008 129.849 401.979 129.957C403.298 129.981 404.598 129.642 405.737 128.977C406.384 128.438 408.389 125.067 409.692 124.411C410.996 123.754 413.288 123.763 412.192 125.175C411.095 126.586 411.293 129.733 410.753 130.173C410.214 130.614 409.324 135.342 409.324 136.969L416.426 143.46L412.38 148.971L404.406 142.687Z" fill="white" stroke="#263238" stroke-linecap="round" stroke-linejoin="round"/>
<path d="M388.594 128.87C389.87 129.012 391.115 129.361 392.279 129.903" stroke="#263238" stroke-linecap="round" stroke-linejoin="round"/>
<path d="M393.43 131.441C393.43 131.441 393.025 133.086 392.918 133.337C392.81 133.589 394.257 135.198 394.05 135.935C393.844 136.673 395.516 138.632 395.516 138.632" stroke="#263238" stroke-linecap="round" stroke-linejoin="round"/>
<path d="M391.794 133.337C390.545 132.737 389.343 132.042 388.198 131.261" stroke="#263238" stroke-linecap="round" stroke-linejoin="round"/>
<path d="M388.315 92.3983L391.425 98.6641L404.209 91.5802L407.023 97.855L393.979 106.135L391.47 99.653L386.4 104.534L384.683 96.6414L388.315 92.3983Z" fill="#757575" stroke="#263238" stroke-linecap="round" stroke-linejoin="round"/>
<path d="M428.076 106.53C431.178 109.847 442.208 134.173 443.269 149.842H409.665V148.44L405.998 146.292C405.998 146.292 408.272 138.291 414.754 139.54L416.641 142.237L420.822 145.384C420.822 145.384 428.157 145.572 430.288 147.685" fill="#757575"/>
<path d="M428.076 106.53C431.178 109.847 442.208 134.173 443.269 149.842H409.665V148.44L405.998 146.292C405.998 146.292 408.272 138.291 414.754 139.54L416.641 142.237L420.822 145.384C420.822 145.384 428.157 145.572 430.288 147.685" stroke="#263238" stroke-linecap="round" stroke-linejoin="round"/>
<path d="M420.822 145.42C420.822 145.42 424.894 139.549 430.881 142.03" stroke="#263238" stroke-linecap="round" stroke-linejoin="round"/>
<path d="M419.266 135.935C420.573 138.362 421.738 140.862 422.754 143.424" stroke="#263238" stroke-linecap="round" stroke-linejoin="round"/>
<path d="M364.141 126.919C364.141 126.919 361.651 112.409 362.343 107.393L364.141 126.919Z" fill="#757575"/>
<path d="M364.141 126.919C364.141 126.919 361.651 112.409 362.343 107.393" stroke="#263238" stroke-linecap="round" stroke-linejoin="round"/>
<path d="M359.161 113.048C359.161 113.048 360.546 120.177 363.656 123.997L359.161 113.048Z" fill="#757575"/>
<path d="M359.161 113.048C359.161 113.048 360.546 120.177 363.656 123.997" stroke="#263238" stroke-linecap="round" stroke-linejoin="round"/>
<path d="M338.539 114.297C338.539 114.297 342.449 117.533 339.959 125.606L338.539 114.297Z" fill="#757575"/>
<path d="M338.539 114.297C338.539 114.297 342.449 117.533 339.959 125.606" stroke="#263238" stroke-linecap="round" stroke-linejoin="round"/>
<path d="M390.832 104.786C390.832 104.954 390.782 105.117 390.689 105.257C390.596 105.396 390.463 105.504 390.308 105.568C390.153 105.631 389.983 105.648 389.819 105.614C389.655 105.581 389.504 105.499 389.386 105.38C389.268 105.261 389.189 105.11 389.157 104.945C389.126 104.781 389.144 104.611 389.209 104.456C389.274 104.302 389.384 104.171 389.524 104.079C389.664 103.987 389.828 103.939 389.996 103.941C390.107 103.941 390.216 103.963 390.318 104.006C390.42 104.048 390.513 104.111 390.59 104.189C390.668 104.268 390.729 104.361 390.771 104.463C390.812 104.566 390.833 104.676 390.832 104.786Z" fill="#263238"/>
<path d="M388.621 117.156C389.087 117.156 389.466 116.778 389.466 116.311C389.466 115.844 389.087 115.466 388.621 115.466C388.154 115.466 387.776 115.844 387.776 116.311C387.776 116.778 388.154 117.156 388.621 117.156Z" fill="#263238"/>
<path d="M387.344 143.109C387.811 143.109 388.189 142.731 388.189 142.264C388.189 141.797 387.811 141.419 387.344 141.419C386.877 141.419 386.499 141.797 386.499 142.264C386.499 142.731 386.877 143.109 387.344 143.109Z" fill="#263238"/>
<path d="M277.966 66.0045H288.556L293.86 56.826L288.556 47.6566H277.966L272.672 56.826L277.966 66.0045Z" stroke="#263238" stroke-linecap="round" stroke-linejoin="round"/>
<path d="M276.429 86.1235L271.134 76.954H260.544" stroke="#263238" stroke-linecap="round" stroke-linejoin="round"/>
<path d="M261.965 56.826H272.555L277.85 47.6565L272.555 38.478H261.965L256.67 47.6565L261.965 56.826Z" stroke="#263238" stroke-linecap="round" stroke-linejoin="round"/>
<path d="M277.966 47.6565H288.556L293.86 38.478L288.556 29.3085H277.966L272.672 38.478L277.966 47.6565Z" stroke="#263238" stroke-linecap="round" stroke-linejoin="round"/>
<path d="M276.429 47.6566C276.427 47.3731 276.51 47.0955 276.666 46.8591C276.823 46.6227 277.046 46.4381 277.307 46.3288C277.569 46.2195 277.857 46.1904 278.135 46.2453C278.413 46.3002 278.669 46.4365 278.869 46.6369C279.07 46.8373 279.206 47.0929 279.261 47.371C279.316 47.6491 279.287 47.9372 279.177 48.1988C279.068 48.4603 278.883 48.6834 278.647 48.8398C278.411 48.9962 278.133 49.0787 277.849 49.077C277.473 49.077 277.111 48.9273 276.845 48.6609C276.579 48.3946 276.429 48.0333 276.429 47.6566Z" fill="#263238"/>
<path d="M255.735 29.821C256.519 29.821 257.155 29.1851 257.155 28.4007C257.155 27.6162 256.519 26.9803 255.735 26.9803C254.95 26.9803 254.314 27.6162 254.314 28.4007C254.314 29.1851 254.95 29.821 255.735 29.821Z" fill="#263238"/>
<path d="M275.009 86.1234C275.009 85.8425 275.092 85.5679 275.248 85.3343C275.404 85.1007 275.626 84.9187 275.886 84.8112C276.145 84.7037 276.431 84.6756 276.706 84.7304C276.982 84.7852 277.235 84.9204 277.434 85.1191C277.632 85.3177 277.768 85.5708 277.822 85.8463C277.877 86.1219 277.849 86.4075 277.742 86.667C277.634 86.9265 277.452 87.1484 277.218 87.3044C276.985 87.4605 276.71 87.5438 276.429 87.5438C276.053 87.5438 275.691 87.3942 275.425 87.1278C275.159 86.8614 275.009 86.5001 275.009 86.1234Z" fill="#263238"/>
<path d="M260.544 78.3744C261.329 78.3744 261.965 77.7385 261.965 76.954C261.965 76.1696 261.329 75.5336 260.544 75.5336C259.76 75.5336 259.124 76.1696 259.124 76.954C259.124 77.7385 259.76 78.3744 260.544 78.3744Z" fill="#263238"/>
<path d="M304.091 38.7208C304.091 38.4377 304.175 38.161 304.332 37.9257C304.49 37.6905 304.713 37.5073 304.975 37.3994C305.237 37.2915 305.525 37.2637 305.802 37.3196C306.08 37.3755 306.334 37.5125 306.534 37.7133C306.733 37.9141 306.869 38.1696 306.923 38.4475C306.977 38.7253 306.948 39.013 306.838 39.274C306.728 39.5351 306.544 39.7577 306.308 39.9136C306.071 40.0696 305.794 40.1519 305.511 40.1501C305.324 40.1501 305.138 40.1131 304.965 40.0412C304.792 39.9692 304.635 39.8638 304.503 39.731C304.371 39.5981 304.267 39.4405 304.196 39.2671C304.125 39.0937 304.089 38.9081 304.091 38.7208Z" fill="#263238"/>
<path d="M271.026 78.3744C271.811 78.3744 272.447 77.7385 272.447 76.954C272.447 76.1696 271.811 75.5336 271.026 75.5336C270.242 75.5336 269.606 76.1696 269.606 76.954C269.606 77.7385 270.242 78.3744 271.026 78.3744Z" fill="#263238"/>
<path d="M292.404 38.7208C292.404 38.4381 292.488 38.1618 292.645 37.9267C292.802 37.6916 293.025 37.5084 293.286 37.4003C293.547 37.2921 293.835 37.2638 294.112 37.3189C294.389 37.3741 294.644 37.5102 294.844 37.7101C295.044 37.91 295.18 38.1647 295.235 38.442C295.29 38.7192 295.262 39.0066 295.154 39.2678C295.046 39.529 294.862 39.7522 294.627 39.9093C294.392 40.0663 294.116 40.1502 293.833 40.1502C293.454 40.1502 293.091 39.9996 292.823 39.7315C292.555 39.4635 292.404 39.0999 292.404 38.7208Z" fill="#263238"/>
<path d="M276.429 66.0045C276.427 65.7211 276.51 65.4435 276.666 65.2071C276.823 64.9706 277.046 64.786 277.307 64.6767C277.569 64.5675 277.857 64.5384 278.135 64.5933C278.413 64.6481 278.669 64.7844 278.869 64.9849C279.07 65.1853 279.206 65.4408 279.261 65.7189C279.316 65.997 279.287 66.2852 279.177 66.5467C279.068 66.8083 278.883 67.0314 278.647 67.1878C278.411 67.3442 278.133 67.4267 277.849 67.4249C277.473 67.4226 277.114 67.2722 276.848 67.0063C276.582 66.7404 276.431 66.3805 276.429 66.0045Z" fill="#263238"/>
<path d="M293.86 38.7208H305.52" stroke="#263238" stroke-linecap="round" stroke-linejoin="round"/>
<path d="M277.85 66.0045L271.026 76.954" stroke="#263238" stroke-linecap="round" stroke-linejoin="round"/>
<path d="M261.965 38.4781L255.735 28.4007" stroke="#263238" stroke-linecap="round" stroke-linejoin="round"/>
<path d="M249.757 110.333C250.711 109.473 251.783 108.753 252.939 108.193C252.986 108.482 253.141 108.742 253.374 108.919C253.606 109.096 253.898 109.178 254.189 109.146C254.827 109.047 255.546 108.418 255.987 108.876C256.166 109.056 256.202 109.344 256.391 109.515C256.966 110.045 257.946 108.903 258.594 109.335C258.764 109.452 258.854 109.65 259.034 109.766C259.176 109.828 259.329 109.859 259.484 109.859C259.638 109.859 259.791 109.828 259.933 109.766C261.539 109.401 263.188 109.258 264.832 109.344L272.375 109.398L271.799 109.101" stroke="#263238" stroke-linecap="round" stroke-linejoin="round"/>
<path d="M249.352 116.625C249.415 116.33 249.579 116.066 249.816 115.879C250.054 115.692 250.349 115.593 250.65 115.601C250.952 115.608 251.242 115.721 251.47 115.92C251.697 116.118 251.848 116.39 251.896 116.688C252.083 116.601 252.25 116.476 252.386 116.322C252.522 116.167 252.625 115.986 252.687 115.789C253.173 116.877 254.674 116.967 255.87 116.886L261.201 116.509C262.801 116.392 264.671 116.104 265.39 114.711C266.18 116.153 266.495 117.808 266.289 119.439C266.783 118.265 267.427 117.159 268.204 116.149C268.366 116.724 268.527 117.3 268.68 117.875C272.393 115.277 277.472 116.976 281.967 116.41" stroke="#263238" stroke-linecap="round" stroke-linejoin="round"/>
<path d="M249.828 124.959C249.812 124.794 249.856 124.628 249.954 124.493C250.052 124.359 250.196 124.265 250.359 124.231C250.409 124.394 250.492 124.545 250.603 124.675C250.714 124.804 250.851 124.91 251.004 124.985C251.157 125.06 251.324 125.102 251.495 125.11C251.665 125.118 251.835 125.091 251.995 125.031C252.637 124.762 253.186 124.312 253.577 123.736C253.711 123.845 253.867 123.924 254.034 123.968C254.201 124.012 254.375 124.019 254.545 123.99C254.715 123.962 254.878 123.897 255.021 123.8C255.164 123.704 255.285 123.578 255.375 123.431C255.776 124.08 256.108 124.77 256.364 125.489C256.849 124.249 258.495 124.051 259.834 124.06H270.622" stroke="#263238" stroke-linecap="round" stroke-linejoin="round"/>
<path d="M333.217 27.1152C330.642 27.0527 328.117 27.8323 326.025 29.3356C323.436 30.9897 320.973 33.7765 321.62 36.7791C322.268 39.7817 325.809 41.3728 328.929 41.9751C331.611 42.4976 334.341 42.7386 337.074 42.6943C338.126 42.7102 339.176 42.5985 340.202 42.3617C341.239 42.068 342.244 41.6736 343.205 41.1841L350.163 37.9118C351.115 37.4623 352.185 36.887 352.446 35.8622C352.77 34.5946 351.682 33.417 350.648 32.6528C346.743 29.8597 341.926 28.6459 337.163 29.2547" stroke="#263238" stroke-linecap="round" stroke-linejoin="round"/>
<path d="M324.956 33.8394C325.365 33.38 325.894 33.0437 326.484 32.8685C326.367 33.2124 326.367 33.5854 326.484 33.9293C326.646 34.2529 327.14 34.4148 327.383 34.1451C327.626 33.8754 327.679 33.4439 327.949 33.5787L328.273 34.2979C328.713 34.1451 329.055 33.7855 329.486 33.5967C329.978 33.4319 330.501 33.3826 331.015 33.4529C334.874 33.651 338.744 33.5337 342.584 33.1023" stroke="#263238" stroke-linecap="round" stroke-linejoin="round"/>
<path d="M331.248 37.705C331.304 37.5213 331.403 37.3532 331.535 37.2143C331.668 37.0754 331.831 36.9694 332.012 36.9049C331.806 37.1296 332.057 37.5162 332.363 37.5701C332.673 37.5757 332.98 37.5112 333.262 37.3813C333.603 37.2933 333.953 37.245 334.305 37.2375L340.858 36.788" stroke="#263238" stroke-linecap="round" stroke-linejoin="round"/>
<path d="M334.044 46.8385C332.148 53.5957 328.217 59.6051 322.785 64.0492C317.354 68.4934 310.685 71.1567 303.686 71.677" stroke="#263238" stroke-linecap="round" stroke-linejoin="round"/>
<path d="M303.794 69.7263C302.522 70.5117 301.389 71.502 300.441 72.6569C301.002 72.5394 301.585 72.5797 302.124 72.7733C302.664 72.9669 303.139 73.3062 303.497 73.7537" stroke="#263238" stroke-linecap="round" stroke-linejoin="round"/>
<path d="M331.887 71.8658L332.705 73.6638L333.873 72.2794C334.092 72.4424 334.245 72.6784 334.305 72.9446C334.395 73.1963 334.53 73.475 334.781 73.5469C335.033 73.6188 335.348 73.2772 335.159 73.0884C335.324 73.2004 335.512 73.2753 335.709 73.3079C335.906 73.3404 336.108 73.33 336.301 73.2772C336.471 73.2772 336.624 73.1514 336.795 73.1064C336.999 73.0618 337.207 73.0437 337.415 73.0525H349.56" stroke="#263238" stroke-linecap="round" stroke-linejoin="round"/>
<path d="M332.453 81.7546C332.51 81.6105 332.604 81.4838 332.724 81.3865C332.845 81.2893 332.989 81.2249 333.142 81.1996C333.294 81.1742 333.451 81.1888 333.597 81.242C333.742 81.2951 333.872 81.385 333.972 81.5028C334.012 81.6179 334.073 81.7246 334.152 81.8175C334.26 81.8939 334.393 81.927 334.525 81.9104C334.656 81.8938 334.776 81.8286 334.862 81.7276C335.06 81.5478 335.186 81.3051 335.393 81.1433C335.959 80.7028 336.768 81.0444 337.46 81.2331C338.347 81.4186 339.256 81.4671 340.157 81.377L347.052 81.0174" stroke="#263238" stroke-linecap="round" stroke-linejoin="round"/>
<path d="M332.669 89.3957C332.898 89.4018 333.123 89.3306 333.307 89.1937C333.491 89.0568 333.624 88.862 333.685 88.6406C333.799 88.6598 333.904 88.713 333.988 88.7932C334.071 88.8734 334.128 88.9768 334.152 89.0901C334.482 88.886 334.764 88.6131 334.979 88.29C339.42 88.3439 343.867 88.3439 348.32 88.29" stroke="#263238" stroke-linecap="round" stroke-linejoin="round"/>
<path d="M332.66 95.1043C332.935 95.218 333.242 95.2258 333.523 95.1262C333.803 95.0266 334.037 94.8266 334.179 94.5649C334.461 94.7932 334.657 95.1099 334.736 95.4639C334.913 95.3438 335.114 95.2619 335.324 95.2232C335.534 95.1845 335.751 95.1899 335.959 95.2391C336.13 95.2391 336.3 95.356 336.471 95.4009C336.903 95.5114 337.349 95.5508 337.793 95.5178L353.291 95.293" stroke="#263238" stroke-linecap="round" stroke-linejoin="round"/>
<path d="M291.046 131.449L298.085 130.766C298.154 130.775 298.224 130.767 298.288 130.742C298.353 130.717 298.41 130.676 298.455 130.624C298.499 130.571 298.53 130.508 298.544 130.44C298.558 130.372 298.555 130.302 298.535 130.236V125.741C298.552 125.592 298.514 125.441 298.427 125.319C298.369 125.266 298.3 125.225 298.226 125.199C298.152 125.173 298.074 125.161 297.995 125.166C296.467 125.031 293.024 124.267 291.703 125.301C290.381 126.334 291.055 129.912 291.046 131.449Z" stroke="#263238" stroke-linecap="round" stroke-linejoin="round"/>
<path d="M293.06 127.44C293.15 127.863 293.231 128.285 293.321 128.717C294.388 128.494 295.482 128.436 296.566 128.546" stroke="#263238" stroke-linecap="round" stroke-linejoin="round"/>
<path d="M296.647 133.391C296.581 133.493 296.545 133.61 296.543 133.731C296.54 133.852 296.572 133.971 296.633 134.075C296.695 134.178 296.785 134.263 296.892 134.318C296.999 134.374 297.12 134.399 297.24 134.389C297.717 134.299 298.094 133.661 298.535 133.859" stroke="#263238" stroke-linecap="round" stroke-linejoin="round"/>
<path d="M291.802 123.026C291.89 122.892 292.016 122.787 292.164 122.724C292.312 122.66 292.475 122.641 292.633 122.669C292.791 122.697 292.938 122.77 293.055 122.88C293.173 122.989 293.256 123.131 293.294 123.287L294.984 123.089" stroke="#263238" stroke-linecap="round" stroke-linejoin="round"/>
<path d="M305.826 137.931C308.223 137.931 310.62 137.931 313.017 137.931C314.881 137.956 316.744 137.844 318.591 137.598C318.798 137.587 318.995 137.505 319.148 137.365C319.276 137.181 319.33 136.957 319.301 136.735V125.804C319.301 125.678 308.289 125.328 307.003 126.218C304.414 128.033 305.826 135.135 305.826 137.931Z" stroke="#263238" stroke-linecap="round" stroke-linejoin="round"/>
<path d="M309.727 129.04L311.444 129.085C311.135 130.253 310.647 131.366 309.997 132.384C309.763 132.699 309.484 133.095 309.655 133.445C310.554 133.589 311.606 133.67 312.172 132.978C312.909 132.079 312.262 130.667 312.82 129.661L313.035 131.791L313.781 132.501C313.975 132.718 314.219 132.885 314.492 132.987C314.628 133.034 314.777 133.033 314.913 132.984C315.048 132.935 315.163 132.841 315.238 132.717" stroke="#263238" stroke-linecap="round" stroke-linejoin="round"/>
<path d="M314.725 139.765C315.292 139.558 315.525 140.619 316.11 140.772C316.694 140.925 317.009 140.152 317.503 139.81C317.738 139.654 318.021 139.589 318.3 139.625C318.579 139.661 318.835 139.797 319.022 140.008" stroke="#263238" stroke-linecap="round" stroke-linejoin="round"/>
<path d="M310.087 122.469C310.626 122.604 310.41 123.503 310.815 123.889C311.219 124.276 311.893 123.889 312.352 123.521C312.81 123.152 313.646 122.99 313.817 123.521" stroke="#263238" stroke-linecap="round" stroke-linejoin="round"/>
<path d="M448.429 149.636H233V164.846H448.429V149.636Z" fill="#BFBFBF" stroke="#263238" stroke-linecap="round" stroke-linejoin="round"/>
<path d="M408.569 155.623H267.808V158.859H408.569V155.623Z" fill="#263238"/>
<path d="M347.637 157.268C347.637 157.736 347.498 158.193 347.238 158.581C346.978 158.97 346.609 159.273 346.177 159.452C345.745 159.631 345.27 159.678 344.811 159.587C344.352 159.496 343.931 159.27 343.6 158.94C343.27 158.609 343.045 158.188 342.953 157.729C342.862 157.271 342.909 156.795 343.088 156.363C343.267 155.931 343.57 155.562 343.959 155.302C344.348 155.042 344.805 154.904 345.272 154.904C345.899 154.904 346.501 155.153 346.944 155.596C347.387 156.04 347.637 156.641 347.637 157.268Z" fill="#4582FF" stroke="#263238" stroke-linecap="round" stroke-linejoin="round"/>
<path d="M441.453 154.328H435.628V160.154H441.453V154.328Z" stroke="#263238" stroke-linecap="round" stroke-linejoin="round"/>
<path d="M431.681 154.328H425.856V160.154H431.681V154.328Z" stroke="#263238" stroke-linecap="round" stroke-linejoin="round"/>
<path d="M249.82 154.265H239.67V160.217H249.82V154.265Z" stroke="#263238" stroke-linecap="round" stroke-linejoin="round"/>
<path d="M239.553 8.35358H277.85" stroke="white" stroke-linecap="round" stroke-linejoin="round"/>
<path d="M442.972 8.21869C442.974 8.66573 442.843 9.10322 442.596 9.47566C442.349 9.8481 441.996 10.1387 441.584 10.3106C441.171 10.4825 440.716 10.5279 440.278 10.4412C439.839 10.3544 439.436 10.1393 439.12 9.82319C438.804 9.50709 438.589 9.10421 438.502 8.66568C438.416 8.22714 438.461 7.7727 438.633 7.36003C438.805 6.94736 439.095 6.59505 439.468 6.3478C439.84 6.10055 440.278 5.96949 440.725 5.97127C441.321 5.97127 441.893 6.20806 442.314 6.62953C442.736 7.051 442.972 7.62264 442.972 8.21869V8.21869Z" stroke="white" stroke-linecap="round" stroke-linejoin="round"/>
<path d="M434.082 8.35363C434.082 8.79812 433.95 9.23264 433.703 9.60223C433.456 9.97181 433.105 10.2599 432.694 10.43C432.284 10.6001 431.832 10.6446 431.396 10.5579C430.96 10.4712 430.559 10.2571 430.245 9.9428C429.931 9.62849 429.717 9.22803 429.63 8.79207C429.543 8.35612 429.588 7.90423 429.758 7.49357C429.928 7.08291 430.216 6.73191 430.586 6.48496C430.955 6.23801 431.39 6.1062 431.834 6.1062C432.43 6.1062 433.002 6.34298 433.423 6.76445C433.845 7.18593 434.082 7.75757 434.082 8.35363V8.35363Z" stroke="white" stroke-linecap="round" stroke-linejoin="round"/>
<path d="M425.191 8.49744C425.189 8.94155 425.056 9.37518 424.808 9.74358C424.559 10.112 424.208 10.3986 423.797 10.5674C423.386 10.7361 422.935 10.7793 422.499 10.6916C422.064 10.6039 421.664 10.3891 421.351 10.0744C421.037 9.75978 420.824 9.35932 420.738 8.92361C420.652 8.4879 420.697 8.03647 420.868 7.62633C421.038 7.21619 421.326 6.86572 421.696 6.61917C422.065 6.37261 422.499 6.24103 422.943 6.24103C423.239 6.24103 423.532 6.29945 423.805 6.41296C424.079 6.52646 424.327 6.69281 424.536 6.90246C424.744 7.1121 424.91 7.36092 425.022 7.63463C425.135 7.90833 425.192 8.20155 425.191 8.49744V8.49744Z" stroke="white" stroke-linecap="round" stroke-linejoin="round"/>
<path d="M284.441 407.787H250.79L232.573 402.017L226.889 400.212L225.226 417.364L25.9678 417.734C25.9678 417.734 29.0088 410.06 33.9682 398.806C44.6687 374.52 64.279 333.509 81.431 316.755C95.3572 303.155 130.144 302.772 130.144 302.772C133.696 300.417 137.862 299.162 142.124 299.162C148.518 299.475 196.862 304.719 199.86 306.268C201.948 307.478 203.739 309.138 205.104 311.127C205.104 311.127 222.043 303.639 238.683 310.389C255.324 317.139 284.441 407.787 284.441 407.787Z" fill="#BFBFBF"/>
<path opacity="0.2" d="M232.573 402.017L226.889 400.212L225.226 417.364L25.9677 417.734C25.9677 417.734 29.0087 410.06 33.9681 398.806C41.6559 398.621 50.3243 398.223 50.3243 398.223L54.7863 383.629C54.7863 383.629 61.7921 376.225 70.5457 380.588C70.2537 379.484 70.3146 378.316 70.7198 377.248C71.125 376.18 71.8542 375.266 72.8051 374.634C76.1872 372.388 90.0566 379.593 90.0566 379.593C90.0566 379.593 96.7354 366.804 99.0091 358.434C101.283 350.064 102.789 370.271 102.789 370.271C102.789 370.271 108.473 360.977 108.473 358.434C108.473 355.89 118.961 383.629 118.961 383.629C118.961 383.629 132.83 385.291 136.581 386.712C140.333 388.134 177.678 389.555 189.7 386.712C201.722 383.87 181.174 400.923 181.174 400.923C181.174 400.923 202.29 408.028 214.227 403.367C226.164 398.706 231.507 393.718 231.507 393.718C231.507 393.718 231.947 397.171 232.573 402.017Z" fill="black" fill-opacity="0.7"/>
<path d="M284.441 407.787H250.79L232.573 402.017L226.889 400.212L225.226 417.364L25.9678 417.734C25.9678 417.734 29.0088 410.06 33.9682 398.806C44.6687 374.52 64.279 333.509 81.431 316.755C95.3572 303.155 130.144 302.772 130.144 302.772C133.696 300.417 137.862 299.162 142.124 299.162C148.518 299.475 196.862 304.719 199.86 306.268C201.948 307.478 203.739 309.138 205.104 311.127C205.104 311.127 222.043 303.639 238.683 310.389C255.324 317.139 284.441 407.787 284.441 407.787Z" stroke="#263238" stroke-linecap="round" stroke-linejoin="round"/>
<path d="M221.602 363.962C218.643 368.135 215.267 371.996 211.527 375.486" stroke="#263238" stroke-linecap="round" stroke-linejoin="round"/>
<path d="M201.679 383.771C187.202 394.465 170.187 401.199 152.312 403.31" stroke="#263238" stroke-linecap="round" stroke-linejoin="round"/>
<path d="M263.907 378.925C263.907 378.925 269.079 375.714 273.612 376.765C278.145 377.817 281.897 382.293 281.897 382.293C281.897 382.293 319.526 379.181 328.067 379.451C336.607 379.721 355.72 385.32 355.72 385.32C355.72 385.32 364.985 383.444 365.98 383.828C366.975 384.211 363.976 415.744 363.976 415.744H241.767C235.77 415.744 231.322 407.062 226.818 400.241C234.578 373.098 238.547 345.013 238.612 316.783" fill="#BFBFBF"/>
<path opacity="0.2" d="M297.443 415.716H241.795C235.798 415.716 231.351 407.033 226.846 400.213C231.301 384.9 234.472 369.243 236.324 353.403C236.324 353.403 242.236 362.171 238.641 372.332L242.236 362.171C242.236 362.171 245.689 373.056 242.236 382.279C238.783 391.502 236.324 394.145 236.324 394.145C236.324 394.145 240.587 399.715 245.106 398.223C249.625 396.731 254.542 405.769 254.542 405.769C254.542 405.769 265.399 406.181 267.658 405.769C268.696 405.584 282.75 410.43 297.443 415.716Z" fill="black" fill-opacity="0.7"/>
<path d="M263.907 378.925C263.907 378.925 269.079 375.714 273.612 376.765C278.145 377.817 281.897 382.293 281.897 382.293C281.897 382.293 319.526 379.181 328.067 379.451C336.607 379.721 355.72 385.32 355.72 385.32C355.72 385.32 364.985 383.444 365.98 383.828C366.975 384.211 363.976 415.744 363.976 415.744H241.767C235.77 415.744 231.322 407.062 226.818 400.241C234.578 373.098 238.547 345.013 238.612 316.783" stroke="#263238" stroke-linecap="round" stroke-linejoin="round"/>
<path d="M194.048 280.731V311.085C190.2 313.706 186.216 316.12 182.112 318.318C173.827 322.709 163.198 327.057 156.874 324.585C145.406 320.08 137.974 302.772 137.974 302.772C150.351 293.336 151.843 280.731 153.719 274.735L194.048 280.731Z" fill="white" stroke="#263238" stroke-linecap="round" stroke-linejoin="round"/>
<path d="M131.977 305.088C131.977 305.088 142.479 327.953 155.225 332.088C167.972 336.223 189.558 320.08 189.558 320.08" stroke="#263238" stroke-linecap="round" stroke-linejoin="round"/>
<path d="M74.6383 332.756C74.6383 332.756 94.5329 348.245 97.8723 353.46C101.212 358.675 97.8723 407.787 97.8723 407.787" stroke="#263238" stroke-linecap="round" stroke-linejoin="round"/>
<path d="M47.5533 382.734C59.2768 375.174 67.5189 383.444 74.6383 384.936C81.7577 386.428 97.5028 378.385 109.312 384.936C121.121 391.487 121.121 389.199 121.121 389.199C121.121 389.199 133.484 398.635 127.103 417.521L25.925 417.705C25.925 417.705 19.1751 403.282 41.3575 382.705" fill="#BFBFBF"/>
<path d="M47.5533 382.734C59.2768 375.174 67.5189 383.444 74.6383 384.936C81.7577 386.428 97.5028 378.385 109.312 384.936C121.121 391.487 121.121 389.199 121.121 389.199C121.121 389.199 133.484 398.635 127.103 417.521L25.925 417.705C25.925 417.705 19.1751 403.282 41.3575 382.705" stroke="#263238" stroke-linecap="round" stroke-linejoin="round"/>
<path d="M146.699 353.503L173.401 402.344L174.239 407.829L169.976 404.035L142.436 355.549C142.841 354.803 143.471 354.204 144.237 353.836C145.002 353.469 145.864 353.352 146.699 353.503Z" fill="#4582FF" stroke="#263238" stroke-linecap="round" stroke-linejoin="round"/>
<path d="M121.348 391.757C123.364 391.172 125.436 390.796 127.529 390.635C129.789 390.635 143.686 380.361 148.404 379.593C153.122 378.826 161.606 385.86 165.926 386.983C170.246 388.105 169.976 393.733 172.505 395.978C175.035 398.223 171.383 400.752 168.242 398.223C168.466 399.101 168.48 400.019 168.283 400.903C168.085 401.787 167.682 402.612 167.105 403.31C167.105 403.31 167.958 406.38 167.105 407.787H117.085C117.085 407.787 116.331 398.223 121.348 391.757Z" fill="white" stroke="#263238" stroke-linecap="round" stroke-linejoin="round"/>
<path d="M168.342 398.223L163.837 393.775L152.312 390.081" stroke="#263238" stroke-linecap="round" stroke-linejoin="round"/>
<path d="M167.219 403.31L160.327 400.212L150.906 398.436" stroke="#263238" stroke-linecap="round" stroke-linejoin="round"/>
<path d="M150.906 405.769L160.327 406.195L167.219 407.787" stroke="#263238" stroke-linecap="round" stroke-linejoin="round"/>
<path d="M148.447 379.593C144.184 383.33 148.447 387.267 146.415 390.08C144.383 392.894 142.152 393.733 143.886 398.223" stroke="#263238" stroke-linecap="round" stroke-linejoin="round"/>
<path d="M209.282 410.16H436.904C436.904 412.169 436.106 414.095 434.686 415.516C433.265 416.936 431.339 417.734 429.33 417.734H227.542C226.751 417.733 225.965 417.608 225.212 417.364L208.998 412.135C208.766 412.066 208.567 411.915 208.437 411.712C208.307 411.508 208.255 411.264 208.289 411.025C208.324 410.786 208.443 410.567 208.625 410.408C208.807 410.249 209.04 410.161 209.282 410.16Z" fill="#4582FF"/>
<path opacity="0.2" d="M436.904 410.16C436.902 412.168 436.105 414.094 434.687 415.517L434.46 415.716C433.066 417.013 431.233 417.734 429.33 417.734H227.542C226.751 417.733 225.964 417.608 225.212 417.364L208.997 412.135C208.763 412.065 208.563 411.912 208.433 411.706C208.303 411.499 208.252 411.252 208.29 411.011C208.328 410.769 208.453 410.55 208.64 410.394C208.828 410.237 209.066 410.154 209.31 410.16H436.904Z" fill="black" fill-opacity="0.7"/>
<path opacity="0.2" d="M436.904 410.16C436.902 412.168 436.105 414.094 434.687 415.517L434.46 415.716H304.221C302.747 415.716 301.332 415.131 300.288 414.089C299.243 413.048 298.655 411.635 298.651 410.16H436.904Z" fill="black" fill-opacity="0.7"/>
<path d="M209.282 410.16H436.904C436.904 412.169 436.106 414.095 434.686 415.516C433.265 416.936 431.339 417.734 429.33 417.734H227.542C226.751 417.733 225.965 417.608 225.212 417.364L208.998 412.135C208.766 412.066 208.567 411.915 208.437 411.712C208.307 411.508 208.255 411.264 208.289 411.025C208.324 410.786 208.443 410.567 208.625 410.408C208.807 410.249 209.04 410.161 209.282 410.16V410.16Z" stroke="#263238" stroke-linecap="round" stroke-linejoin="round"/>
<path d="M298.651 410.16C298.655 411.635 299.243 413.048 300.288 414.09C301.332 415.131 302.747 415.716 304.221 415.716H325.835" stroke="#263238" stroke-linecap="round" stroke-linejoin="round"/>
<path d="M477.645 316.726V316.911L451.157 409.065C450.762 410.249 450.016 411.284 449.019 412.033C448.021 412.782 446.819 413.209 445.572 413.258H307.589C307.067 413.299 306.542 413.209 306.064 412.994C305.586 412.78 305.169 412.449 304.852 412.032C304.535 411.614 304.328 411.124 304.25 410.606C304.172 410.087 304.226 409.558 304.406 409.065L330.866 316.911C331.259 315.727 332.004 314.69 333.002 313.941C334 313.192 335.204 312.765 336.451 312.719H474.434C474.94 312.674 475.449 312.755 475.917 312.954C476.384 313.154 476.795 313.465 477.113 313.862C477.431 314.259 477.646 314.728 477.739 315.227C477.832 315.727 477.799 316.242 477.645 316.726Z" fill="#4582FF"/>
<path opacity="0.4" d="M477.645 316.726V316.911L451.157 409.066C450.762 410.249 450.016 411.284 449.019 412.033C448.021 412.782 446.819 413.209 445.572 413.258H308.499V413.073L334.944 320.918C335.339 319.735 336.085 318.7 337.083 317.951C338.08 317.202 339.282 316.775 340.529 316.726H477.645Z" fill="white"/>
<path d="M477.645 316.726V316.911L451.157 409.065C450.762 410.249 450.016 411.284 449.019 412.033C448.021 412.782 446.819 413.209 445.572 413.258H307.589C307.067 413.299 306.542 413.209 306.064 412.994C305.586 412.78 305.169 412.449 304.852 412.032C304.535 411.614 304.328 411.124 304.25 410.606C304.172 410.087 304.226 409.558 304.406 409.065L330.866 316.911C331.259 315.727 332.004 314.69 333.002 313.941C334 313.192 335.204 312.765 336.451 312.719H474.434C474.94 312.674 475.449 312.755 475.917 312.954C476.384 313.154 476.795 313.465 477.113 313.862C477.431 314.259 477.646 314.728 477.739 315.227C477.832 315.727 477.799 316.242 477.645 316.726Z" stroke="#263238" stroke-linecap="round" stroke-linejoin="round"/>
<path d="M400.952 364.687C399.776 367.106 397.965 369.16 395.713 370.629C393.46 372.098 390.85 372.928 388.162 373.028C382.364 373.028 378.94 368.538 380.531 362.995C381.483 360.16 383.274 357.68 385.667 355.886C388.061 354.091 390.943 353.067 393.932 352.949H394.188C393.92 353.497 393.701 354.067 393.534 354.654C391.9 360.153 395.239 364.601 400.952 364.687Z" fill="white" stroke="#263238" stroke-linecap="round" stroke-linejoin="round"/>
<path d="M309.209 408.739L335.03 318.787C335.26 318.097 335.695 317.494 336.276 317.058C336.857 316.621 337.558 316.372 338.284 316.343H472.032" stroke="#263238" stroke-linecap="round" stroke-linejoin="round"/>
<path d="M245.106 417.734H54.687L56.9891 412.931C56.9891 412.931 74.9795 414.608 89.2325 410.16C95.5277 408.199 105.219 407.318 114.939 407.431C121.064 407.517 135.971 407.573 145.221 407.531C148.518 407.531 151.105 407.531 152.327 407.446C152.796 407.446 153.265 407.446 153.748 407.446C156.386 407.414 159.02 407.661 161.606 408.185C164.101 407.902 166.612 407.779 169.123 407.815C173.514 407.815 192.4 407.744 197.544 407.815C204.323 407.9 212.152 409.236 219.585 410.259L219.783 410.188V410.288C228.764 411.538 237.177 412.391 242.52 410.188L245.106 417.734Z" fill="white"/>
<path opacity="0.4" d="M245.106 417.734H97.5029L100.501 412.576C100.501 412.576 108.559 417.279 116.431 413.997C124.304 410.714 132.233 408.924 145.221 407.503C148.054 407.2 150.908 407.162 153.748 407.389C159.402 407.822 164.961 409.087 170.246 411.14C170.246 411.14 177.991 407.758 197.544 407.758C204.323 407.844 212.152 409.179 219.584 410.203L219.783 410.131V410.231C228.764 411.481 237.177 412.334 242.52 410.131L245.106 417.734Z" fill="#4582FF"/>
<path d="M100.501 412.576L57.0459 412.931L54.7438 417.734H97.5029L100.501 412.576Z" fill="#4582FF"/>
<path d="M98.725 415.617L100.501 412.576C104.343 414.248 108.489 415.109 112.68 415.105C119.046 414.92 129.107 407.034 148.447 407.417" stroke="#263238" stroke-linecap="round" stroke-linejoin="round"/>
<path d="M161.563 408.156C165.13 409.464 170.203 411.169 170.203 411.169C170.203 411.169 176.768 407.389 191.192 407.787" stroke="#263238" stroke-linecap="round" stroke-linejoin="round"/>
<path d="M100.501 412.576C100.501 412.576 78.0203 412.974 69.0251 413.172" stroke="#263238" stroke-linecap="round" stroke-linejoin="round"/>
<path d="M167.205 417.734C167.327 416.808 167.737 415.943 168.377 415.263C169.017 414.582 169.855 414.119 170.772 413.94C173.955 413.414 176.015 417.35 176.015 417.35" stroke="#263238" stroke-linecap="round" stroke-linejoin="round"/>
<path d="M170.203 411.169L170.772 413.94" stroke="#263238" stroke-linecap="round" stroke-linejoin="round"/>
<path d="M173.401 413.94C173.401 413.94 183.518 409.321 193.295 410.16" stroke="#263238" stroke-linecap="round" stroke-linejoin="round"/>
<path d="M169.237 414.494C168.342 413.798 153.151 409.108 137.605 412.576" stroke="#263238" stroke-linecap="round" stroke-linejoin="round"/>
<path d="M167.205 416.412C167.205 416.412 154.416 413.982 143.289 415.674" stroke="#263238" stroke-linecap="round" stroke-linejoin="round"/>
<path d="M174.822 415.702C183.311 413.335 192.196 412.735 200.926 413.94C209.524 415.219 218.211 415.798 226.903 415.674" stroke="#263238" stroke-linecap="round" stroke-linejoin="round"/>
<path d="M245.106 417.734H54.687L56.9891 412.931C56.9891 412.931 74.9795 414.608 89.2325 410.16C95.5277 408.199 105.219 407.318 114.939 407.431C121.064 407.517 135.971 407.573 145.221 407.531C148.518 407.531 151.105 407.531 152.327 407.446C152.796 407.446 153.265 407.446 153.748 407.446C156.386 407.414 159.02 407.661 161.606 408.185C164.101 407.902 166.612 407.779 169.123 407.815C173.514 407.815 192.4 407.744 197.544 407.815C204.323 407.9 212.152 409.236 219.584 410.259L219.783 410.188V410.288C228.764 411.538 237.177 412.391 242.52 410.188L245.106 417.734Z" stroke="#263238" stroke-linecap="round" stroke-linejoin="round"/>
<path d="M194.048 306.04V311.085C190.2 313.706 186.216 316.12 182.111 318.318C173.002 309.948 171.709 294.047 171.709 294.047L194.048 306.04Z" fill="#263238"/>
<path d="M155.226 276.98C144.511 261.135 146.699 231.507 160.469 215.335C180.705 191.717 233.511 208.969 233.468 242.335C233.427 246.972 233.028 251.6 232.274 256.176C231.578 260.581 227.756 265.029 226.59 269.42C225.425 273.811 225.894 280.788 225.425 285.051C224.373 294.757 210.945 314.012 207.307 316.101C202.219 318.943 174.722 311.227 168.726 293.592" fill="white"/>
<path d="M155.226 276.98C144.511 261.135 146.699 231.507 160.469 215.335C180.705 191.717 233.511 208.969 233.468 242.335C233.427 246.972 233.028 251.6 232.274 256.176C231.578 260.581 227.756 265.029 226.59 269.42C225.425 273.811 225.894 280.788 225.425 285.051C224.373 294.757 210.945 314.012 207.307 316.101C202.219 318.943 174.722 311.227 168.726 293.592" stroke="#263238" stroke-linecap="round" stroke-linejoin="round"/>
<path d="M192.698 257.398C192.698 257.398 200.187 254.67 206.909 257.398" stroke="#263238" stroke-linecap="round" stroke-linejoin="round"/>
<path d="M222.242 257.398C222.242 257.398 227.698 254.67 231.35 257.398" stroke="#263238" stroke-linecap="round" stroke-linejoin="round"/>
<path d="M199.704 270.131C199.306 272.049 197.999 273.413 196.862 273.172C195.725 272.93 194.972 271.154 195.37 269.221C195.768 267.289 197.075 265.939 198.283 266.194C199.491 266.45 200.102 268.241 199.704 270.131Z" fill="#263238"/>
<path d="M223.805 270.131C223.407 272.049 222.1 273.413 220.963 273.172C219.826 272.93 219.073 271.154 219.471 269.221C219.869 267.289 221.162 265.939 222.384 266.194C223.606 266.45 224.203 268.241 223.805 270.131Z" fill="#263238"/>
<path d="M219.869 260.311C219.869 260.311 216.302 266.493 215.932 271.679C215.563 276.866 221.616 287.609 219.869 290.977C218.121 294.345 210.689 294.175 208.244 292.114" fill="white"/>
<path d="M219.869 260.311C219.869 260.311 216.302 266.493 215.932 271.679C215.563 276.866 221.616 287.609 219.869 290.977C218.121 294.345 210.689 294.175 208.244 292.114" stroke="#263238" stroke-linecap="round" stroke-linejoin="round"/>
<path d="M209.566 298.906C204.655 299.601 199.648 298.887 195.128 296.846" stroke="#263238" stroke-linecap="round" stroke-linejoin="round"/>
<path d="M165.969 262.372C165.969 262.372 169.464 258.989 173.585 260.311C177.706 261.633 178.46 272.859 178.46 272.859L181.458 269.661C181.458 269.661 180.335 263.309 184.826 254.4C189.316 245.49 187.071 235.002 187.071 235.002C187.071 235.002 194.816 237.617 197.502 243.614C197.502 243.614 200.429 237.248 197.502 232.373C197.502 232.373 209.566 235.372 212.565 244.367C212.565 244.367 214.938 237.617 214.128 234.249C214.128 234.249 222.299 236.864 225.297 244.736C225.297 244.736 228.026 238.74 226.846 233.865C226.846 233.865 230.143 236.708 231.408 245.12C233.869 239.991 234.593 234.199 233.468 228.622C233.468 228.622 237.731 233.496 238.413 237.617C238.413 237.617 241.881 225.623 221.602 209.509C201.324 193.394 166.608 197.046 161.208 209.509C161.208 209.509 162.999 200.329 166.608 197.046C166.608 197.046 156.661 201.48 156.874 210.631C156.874 210.631 148.092 209.509 143.602 215.136C146.354 214.928 149.121 215.052 151.844 215.506C151.844 215.506 139.85 222.611 140.603 239.493C141.356 256.375 151.844 280.703 151.844 280.703L160.057 278.301C160.057 278.301 161.365 266.819 165.969 262.372Z" fill="#263238"/>
<path d="M175.077 266.493C175.077 266.493 168.711 255.252 165.343 254.499C161.975 253.746 155.595 258.251 157.087 264.247C158.579 270.244 159.716 280.362 161.592 281.485C163.467 282.607 166.466 289.357 169.464 287.481C169.859 287.278 170.2 286.985 170.461 286.627C170.722 286.268 170.895 285.853 170.967 285.415C171.039 284.977 171.007 284.528 170.875 284.105C170.742 283.682 170.512 283.295 170.203 282.977" fill="white"/>
<path d="M175.077 266.493C175.077 266.493 168.711 255.252 165.343 254.499C161.975 253.746 155.595 258.251 157.087 264.247C158.579 270.244 159.716 280.362 161.592 281.485C163.467 282.607 166.466 289.357 169.464 287.481C169.859 287.278 170.2 286.985 170.461 286.627C170.722 286.268 170.895 285.853 170.967 285.415C171.039 284.977 171.007 284.528 170.875 284.105C170.742 283.682 170.512 283.295 170.203 282.977" stroke="#263238" stroke-linecap="round" stroke-linejoin="round"/>
<path d="M246.286 353.403C245.642 356.174 244.816 358.899 243.813 361.56" stroke="#263238" stroke-linecap="round" stroke-linejoin="round"/>
<path d="M241.525 366.989C239.26 372.152 235.94 376.785 231.777 380.588" stroke="#263238" stroke-linecap="round" stroke-linejoin="round"/>
<path d="M281.925 382.293C279.979 382.037 276.014 384.496 272.376 387.665" stroke="#263238" stroke-linecap="round" stroke-linejoin="round"/>
<path d="M269.704 390.18C266.862 393.121 264.66 396.234 264.66 398.223" stroke="#263238" stroke-linecap="round" stroke-linejoin="round"/>
<path d="M63.0852 374.634C63.0852 374.634 71.1709 376.879 71.242 383.814" stroke="#263238" stroke-linecap="round" stroke-linejoin="round"/>
<path d="M93.3817 336.777C94.724 338.279 95.9451 339.885 97.0338 341.58" stroke="#263238" stroke-linecap="round" stroke-linejoin="round"/>
<path d="M100.231 347.435C101.822 350.888 102.678 354.633 102.747 358.434C102.747 370.129 99.3787 376.907 99.3787 376.907" stroke="#263238" stroke-linecap="round" stroke-linejoin="round"/>
<path d="M142.479 325.309C144.623 327.302 146.917 329.127 149.342 330.766" stroke="#263238" stroke-linecap="round" stroke-linejoin="round"/>
<path d="M156.476 335.03C163.738 338.696 173.131 341.453 182.879 339.023" stroke="#263238" stroke-linecap="round" stroke-linejoin="round"/>
<g opacity="0.2">
<path opacity="0.2" d="M171.71 210.106C174.248 209.718 176.816 209.551 179.383 209.608" stroke="white" stroke-linecap="round" stroke-linejoin="round"/>
<path opacity="0.2" d="M183.121 209.807C190.069 210.461 198.624 212.891 203.939 220.224" stroke="white" stroke-linecap="round" stroke-linejoin="round"/>
<path opacity="0.2" d="M188.578 204.407C188.578 204.407 201.608 204.55 210.945 211.072" stroke="white" stroke-linecap="round" stroke-linejoin="round"/>
<path opacity="0.2" d="M214.611 214.241C216.282 215.988 217.621 218.025 218.561 220.252" stroke="white" stroke-linecap="round" stroke-linejoin="round"/>
<path opacity="0.2" d="M168.342 215.662C168.342 215.662 181.131 220.167 185.579 228.224" stroke="white" stroke-linecap="round" stroke-linejoin="round"/>
<path opacity="0.2" d="M162.146 220.224C164.917 224.063 166.911 228.408 168.015 233.013" stroke="white" stroke-linecap="round" stroke-linejoin="round"/>
<path opacity="0.2" d="M168.811 239.337C168.828 241.034 168.671 242.73 168.342 244.395" stroke="white" stroke-linecap="round" stroke-linejoin="round"/>
<path opacity="0.2" d="M153.535 225.467C152.876 227.139 152.33 228.853 151.9 230.597" stroke="white" stroke-linecap="round" stroke-linejoin="round"/>
<path opacity="0.2" d="M150.891 235.557C150.145 239.988 150.088 244.508 150.721 248.957" stroke="white" stroke-linecap="round" stroke-linejoin="round"/>
</g>
<path d="M321.246 443H500.581V417.734H1V443H102.008" fill="white"/>
<path d="M321.246 443H500.581V417.734H1V443H102.008" stroke="#263238" stroke-linecap="round" stroke-linejoin="round"/>
<path d="M308.371 443H282.906" stroke="#263238" stroke-linecap="round" stroke-linejoin="round"/>
</svg>
