<svg width="50" height="50" viewBox="0 0 50 50" fill="none" xmlns="http://www.w3.org/2000/svg">
<path d="M37.5 46.875H12.5C11.6715 46.8742 10.8771 46.5447 10.2912 45.9588C9.70533 45.3729 9.37583 44.5785 9.375 43.75V6.25C9.37583 5.42145 9.70533 4.62708 10.2912 4.0412C10.8771 3.45533 11.6715 3.12583 12.5 3.125H37.5C38.3285 3.12583 39.1229 3.45533 39.7088 4.0412C40.2947 4.62708 40.6242 5.42145 40.625 6.25V32.2156L32.8125 28.3094L25 32.2156V6.25H12.5V43.75H37.5V37.5H40.625V43.75C40.6238 44.5784 40.2941 45.3726 39.7083 45.9583C39.1226 46.5441 38.3284 46.8738 37.5 46.875ZM32.8125 24.8156L37.5 27.1594V6.25H28.125V27.1594L32.8125 24.8156Z" fill="black"/>
</svg>
