<svg width="50" height="50" viewBox="0 0 50 50" fill="none" xmlns="http://www.w3.org/2000/svg">
<path fill-rule="evenodd" clip-rule="evenodd" d="M12.5 35.2812L15.625 32.1562V36.5938L12.0312 40.1562L9.375 39.0625V31.25H4.6875L3.125 29.6875V4.6875L4.6875 3.125H42.1875L43.75 4.6875V18.75H40.625V6.25H6.25V28.125H10.9375L12.5 29.6875V35.2812ZM32.1562 40.625L37.9688 46.4062L40.625 45.3125V40.625H45.3125L46.875 39.0625V23.4375L45.3125 21.875H20.3125L18.75 23.4375V39.0625L20.3125 40.625H32.1562ZM32.8125 37.5H21.875V25H43.75V37.5H39.0625L37.5 39.0625V41.5312L33.9063 37.9688L32.8125 37.5Z" fill="black"/>
</svg>
