<svg width="81" height="80" viewBox="0 0 81 80" fill="none" xmlns="http://www.w3.org/2000/svg">
<path d="M48.4798 31.7474C51.2049 31.7474 53.4166 33.9591 53.4166 36.6842V45.8526H53.4053V46.5579C53.4053 47.119 53.1824 47.6572 52.7856 48.054C52.3889 48.4508 51.8507 48.6737 51.2896 48.6737C50.7284 48.6737 50.1903 48.4508 49.7935 48.054C49.3967 47.6572 49.1738 47.119 49.1738 46.5579V40.2105H49.185V36.6842C49.185 36.4972 49.1107 36.3178 48.9785 36.1855C48.8462 36.0533 48.6668 35.979 48.4798 35.979H32.9584C32.7713 35.979 32.5919 36.0533 32.4597 36.1855C32.3274 36.3178 32.2531 36.4972 32.2531 36.6842V45.8526H32.2474V46.5579C32.2474 47.119 32.0245 47.6572 31.6277 48.054C31.231 48.4508 30.6928 48.6737 30.1317 48.6737C29.5705 48.6737 29.0324 48.4508 28.6356 48.054C28.2388 47.6572 28.0159 47.119 28.0159 46.5579V40.2105H28.0215V36.6842C28.0215 33.9591 30.2304 31.7474 32.9584 31.7474H48.4798Z" fill="#4582FF"/>
<path d="M64.6894 36.6842V46.5579C64.6894 47.119 64.9124 47.6572 65.3091 48.054C65.7059 48.4508 66.2441 48.6737 66.8052 48.6737C67.3664 48.6737 67.9045 48.4508 68.3013 48.054C68.6981 47.6572 68.921 47.119 68.921 46.5579V36.6842C68.921 35.3749 68.4009 34.1192 67.4751 33.1933C66.5492 32.2675 65.2935 31.7474 63.9842 31.7474H54.4631C55.4308 32.9181 56.0627 34.3766 56.2065 35.979H63.9842C64.1712 35.979 64.3506 36.0533 64.4829 36.1855C64.6151 36.3178 64.6894 36.4972 64.6894 36.6842Z" fill="#4582FF"/>
<path d="M12.5 46.5579C12.5 47.119 12.7229 47.6572 13.1197 48.054C13.5165 48.4508 14.0546 48.6737 14.6158 48.6737C15.1769 48.6737 15.7151 48.4508 16.1119 48.054C16.5087 47.6572 16.7316 47.119 16.7316 46.5579V36.6842C16.7316 36.4972 16.8059 36.3178 16.9381 36.1855C17.0704 36.0533 17.2498 35.979 17.4368 35.979H25.2314C25.3717 34.4247 25.9795 32.9494 26.9748 31.7474H17.4368C16.1275 31.7474 14.8718 32.2675 13.946 33.1933C13.0201 34.1192 12.5 35.3749 12.5 36.6842V46.5579Z" fill="#4582FF"/>
<path d="M40.7106 12C42.9552 12 45.1078 12.8917 46.695 14.4788C48.2821 16.066 49.1738 18.2186 49.1738 20.4632C49.1738 22.7077 48.2821 24.8604 46.695 26.4475C45.1078 28.0347 42.9552 28.9263 40.7106 28.9263C38.466 28.9263 36.3134 28.0347 34.7262 26.4475C33.1391 24.8604 32.2474 22.7077 32.2474 20.4632C32.2474 18.2186 33.1391 16.066 34.7262 14.4788C36.3134 12.8917 38.466 12 40.7106 12ZM40.7106 16.2316C39.5883 16.2316 38.512 16.6774 37.7184 17.471C36.9248 18.2646 36.479 19.3409 36.479 20.4632C36.479 21.5854 36.9248 22.6618 37.7184 23.4553C38.512 24.2489 39.5883 24.6947 40.7106 24.6947C41.8329 24.6947 42.9092 24.2489 43.7028 23.4553C44.4964 22.6618 44.9422 21.5854 44.9422 20.4632C44.9422 19.3409 44.4964 18.2646 43.7028 17.471C42.9092 16.6774 41.8329 16.2316 40.7106 16.2316Z" fill="#4582FF"/>
<path d="M59.0474 14.821C60.9179 14.821 62.7117 15.5641 64.0343 16.8867C65.357 18.2093 66.1 20.0032 66.1 21.8737C66.1 23.7441 65.357 25.538 64.0343 26.8606C62.7117 28.1833 60.9179 28.9263 59.0474 28.9263C57.1769 28.9263 55.383 28.1833 54.0604 26.8606C52.7378 25.538 51.9948 23.7441 51.9948 21.8737C51.9948 20.0032 52.7378 18.2093 54.0604 16.8867C55.383 15.5641 57.1769 14.821 59.0474 14.821ZM59.0474 19.0526C58.2992 19.0526 57.5816 19.3498 57.0526 19.8789C56.5235 20.4079 56.2263 21.1255 56.2263 21.8737C56.2263 22.6219 56.5235 23.3394 57.0526 23.8685C57.5816 24.3975 58.2992 24.6947 59.0474 24.6947C59.7956 24.6947 60.5131 24.3975 61.0422 23.8685C61.5712 23.3394 61.8684 22.6219 61.8684 21.8737C61.8684 21.1255 61.5712 20.4079 61.0422 19.8789C60.5131 19.3498 59.7956 19.0526 59.0474 19.0526Z" fill="#4582FF"/>
<path d="M22.3737 14.821C24.2442 14.821 26.038 15.5641 27.3606 16.8867C28.6833 18.2093 29.4263 20.0032 29.4263 21.8737C29.4263 23.7441 28.6833 25.538 27.3606 26.8606C26.038 28.1833 24.2442 28.9263 22.3737 28.9263C20.5032 28.9263 18.7093 28.1833 17.3867 26.8606C16.0641 25.538 15.321 23.7441 15.321 21.8737C15.321 20.0032 16.0641 18.2093 17.3867 16.8867C18.7093 15.5641 20.5032 14.821 22.3737 14.821ZM22.3737 19.0526C21.6255 19.0526 20.9079 19.3498 20.3789 19.8789C19.8498 20.4079 19.5526 21.1255 19.5526 21.8737C19.5526 22.6219 19.8498 23.3394 20.3789 23.8685C20.9079 24.3975 21.6255 24.6947 22.3737 24.6947C23.1219 24.6947 23.8394 24.3975 24.3685 23.8685C24.8975 23.3394 25.1947 22.6219 25.1947 21.8737C25.1947 21.1255 24.8975 20.4079 24.3685 19.8789C23.8394 19.3498 23.1219 19.0526 22.3737 19.0526Z" fill="#4582FF"/>
<path d="M14.6158 51.4947C14.0546 51.4947 13.5165 51.7176 13.1197 52.1144C12.7229 52.5112 12.5 53.0494 12.5 53.6105V55.021C12.5 57.8267 13.6146 60.5175 15.5985 62.5015C17.5824 64.4854 20.2732 65.6 23.0789 65.6H58.3421C61.1478 65.6 63.8386 64.4854 65.8226 62.5015C67.8065 60.5175 68.9211 57.8267 68.9211 55.021V53.6105C68.9211 53.0494 68.6981 52.5112 68.3014 52.1144C67.9046 51.7176 67.3664 51.4947 66.8053 51.4947H14.6158ZM23.0789 61.3684C21.5177 61.3684 20.0112 60.7929 18.8475 59.752C17.6838 58.7112 16.9445 57.2779 16.7711 55.7263H64.65C64.4765 57.2779 63.7373 58.7112 62.5736 59.752C61.4099 60.7929 59.9034 61.3684 58.3421 61.3684H23.0789Z" fill="#4582FF"/>
</svg>
