<svg width="80" height="80" viewBox="0 0 80 80" fill="none" xmlns="http://www.w3.org/2000/svg">
<path d="M56.1021 42.3216C55.7427 41.4661 55.3159 40.6406 54.8259 39.8526V25.5798C54.8279 23.5851 54.4352 21.6098 53.6702 19.7676C52.9052 17.9254 51.7833 16.2529 50.3689 14.8464C48.9629 13.432 47.2902 12.3108 45.4478 11.5475C43.6053 10.7843 41.6297 10.3942 39.6355 10.4C37.64 10.3952 35.6634 10.7857 33.8196 11.5488C31.9759 12.312 30.3015 13.4327 28.8932 14.8464C27.4795 16.2528 26.3586 17.9256 25.5954 19.7679C24.8322 21.6103 24.4418 23.5856 24.4468 25.5798V27.6601H30.5297V25.5798C30.5297 23.1587 31.4722 20.8654 33.2011 19.1454C34.0443 18.2983 35.0472 17.6268 36.1516 17.1698C37.2561 16.7128 38.4402 16.4793 39.6355 16.4829C42.0475 16.4871 44.3596 17.4467 46.0658 19.1516C47.772 20.8564 48.7333 23.1678 48.7394 25.5798V33.8921C45.9749 32.2442 42.8148 31.3779 39.5964 31.3858C37.2438 31.3811 34.9135 31.8418 32.7396 32.7414C30.5658 33.6409 28.5914 34.9616 26.93 36.6274C25.2649 38.2891 23.9447 40.2637 23.0455 42.4375C22.1462 44.6112 21.6857 46.9414 21.6902 49.2938C21.6863 51.6443 22.1473 53.9723 23.0465 56.144C23.9458 58.3157 25.2656 60.2881 26.93 61.9478C28.5916 63.6138 30.5655 64.9358 32.7387 65.8381C34.9118 66.7404 37.2416 67.2052 39.5946 67.206C41.9476 67.2069 44.2777 66.7436 46.4515 65.8429C48.6252 64.9421 50.6 63.6215 52.2628 61.9566C53.9278 60.2952 55.2479 58.3209 56.1471 56.1475C57.0464 53.974 57.507 51.6442 57.5026 49.292C57.5026 46.878 57.0322 44.5297 56.0986 42.3198L56.1021 42.3216ZM39.6 61.1171C33.0822 61.1171 27.7767 55.8116 27.7767 49.2938C27.7767 42.776 33.0822 37.4705 39.6 37.4705C42.735 37.4729 45.7409 38.7193 47.9577 40.9361C50.1745 43.1529 51.4209 46.1588 51.4232 49.2938C51.419 52.4282 50.172 55.4331 47.9556 57.6494C45.7392 59.8658 42.7344 61.1128 39.6 61.1171ZM44.6765 49.3488C44.6765 56.0317 34.6442 56.0317 34.6442 49.3488C34.6442 42.6553 44.6765 42.6553 44.6765 49.3488Z" fill="#4582FF"/>
</svg>
