<svg width="50" height="50" viewBox="0 0 50 50" fill="none" xmlns="http://www.w3.org/2000/svg">
<path d="M45.7178 9.95463L25.5268 3.20431C25.1842 3.09856 24.8178 3.09856 24.4752 3.20431L4.30531 9.95463H4.26325L4.05293 10.0601H4.03189L3.82157 10.1867C3.82157 10.2078 3.80054 10.2078 3.77951 10.2289L3.61125 10.3765L3.46402 10.5453C3.46402 10.5664 3.44299 10.5664 3.44299 10.5875L3.3168 10.7773C3.3168 10.7984 3.3168 10.7984 3.29577 10.8195L3.21164 11.0094L3.14854 11.2414V11.3047C3.1278 11.3874 3.12069 11.4729 3.12751 11.5578V28.4337C3.12751 28.8812 3.30478 29.3105 3.62032 29.627C3.93587 29.9434 4.36384 30.1212 4.81009 30.1212C5.25634 30.1212 5.68431 29.9434 5.99985 29.627C6.3154 29.3105 6.49267 28.8812 6.49267 28.4337V13.8994L13.5595 16.262C12.2319 18.3934 11.5319 20.8578 11.5404 23.3709C11.5412 25.6565 12.1205 27.9046 13.2241 29.9043C14.3277 31.904 15.9194 33.59 17.8501 34.8043C13.838 36.3266 10.4128 39.0896 8.07009 42.6937C7.8313 43.0724 7.7504 43.5301 7.84482 43.9681C7.93923 44.406 8.20141 44.7893 8.57486 45.0352C8.75813 45.157 8.96367 45.2411 9.17958 45.2827C9.39548 45.3242 9.61746 45.3224 9.83265 45.2772C10.0478 45.2321 10.252 45.1446 10.4332 45.0198C10.6144 44.8949 10.7691 44.7353 10.8884 44.5501C12.4156 42.1906 14.5067 40.2515 16.9714 38.909C19.4361 37.5666 22.1963 36.8634 25.001 36.8634C27.8058 36.8634 30.566 37.5666 33.0307 38.909C35.4954 40.2515 37.5865 42.1906 39.1137 44.5501C39.2673 44.784 39.4765 44.9759 39.7225 45.1085C39.9685 45.241 40.2436 45.3101 40.5228 45.3095C40.8452 45.3129 41.1608 45.2172 41.4272 45.0352C41.8007 44.7893 42.0629 44.406 42.1573 43.9681C42.2517 43.5301 42.1708 43.0724 41.932 42.6937C39.5893 39.0896 36.1641 36.3266 32.152 34.8043C34.0827 33.59 35.6744 31.904 36.778 29.9043C37.8816 27.9046 38.4609 25.6565 38.4617 23.3709C38.4702 20.8578 37.7702 18.3934 36.4426 16.262L45.7178 13.161C46.0544 13.0501 46.3475 12.8353 46.5553 12.5474C46.7631 12.2596 46.875 11.9132 46.875 11.5578C46.875 11.2024 46.7631 10.8561 46.5553 10.5682C46.3475 10.2803 46.0544 10.0656 45.7178 9.95463ZM35.0965 23.3709C35.0965 26.0564 34.0329 28.6318 32.1396 30.5307C30.2464 32.4296 27.6785 33.4964 25.001 33.4964C22.3236 33.4964 19.7557 32.4296 17.8625 30.5307C15.9692 28.6318 14.9056 26.0564 14.9056 23.3709C14.9096 21.2102 15.5942 19.1061 16.8616 17.3589L24.4752 19.9114C24.8168 20.0241 25.1853 20.0241 25.5268 19.9114L33.1405 17.3589C34.4079 19.1061 35.0925 21.2102 35.0965 23.3709ZM33.1405 13.815H33.1195L25.001 16.5362L16.8826 13.815H16.8616L10.1312 11.5578L25.001 6.57947L39.8708 11.5578L33.1405 13.815Z" fill="black"/>
</svg>
