<svg width="81" height="80" viewBox="0 0 81 80" fill="none" xmlns="http://www.w3.org/2000/svg">
<path d="M10.5 15V20H65.5V60H30.5V65H75.5V60H70.5V15H10.5ZM20.505 22.5C17.8552 22.5092 15.3165 23.5656 13.4423 25.4388C11.5682 27.312 10.5105 29.8502 10.5 32.5C10.5 37.9975 15.01 42.5 20.505 42.5C23.1535 42.4895 25.6904 41.4323 27.5627 39.5591C29.4349 37.6859 30.4908 35.1485 30.5 32.5C30.5 27.0075 25.995 22.5 20.505 22.5ZM35.5 25V30H48V25H35.5ZM53 25V30H60.5V25H53ZM20.505 27.5C23.29 27.5 25.5 29.7075 25.5 32.5C25.5 35.3 23.2925 37.5 20.505 37.5C17.705 37.5 15.5 35.3 15.5 32.5C15.5 29.7075 17.7075 27.5 20.505 27.5ZM35.5 35V40H60.5V35H35.5ZM10.5 45V65H15.5V50H23V65H28V51.645L33.16 54.375C34.6225 55.15 36.38 55.1475 37.84 54.375V54.38L46.665 49.7125L44.3325 45.2875L35.505 49.955L27.765 45.87C26.6848 45.2993 25.4817 45.0007 24.26 45H10.5Z" fill="#4582FF"/>
</svg>
